<svg width="24" height="24" viewBox="0 0 24 24" fill="none" xmlns="http://www.w3.org/2000/svg">
<path d="M15.58 7.33C15.3148 7.33 15.0604 7.43536 14.8729 7.62289C14.6854 7.81043 14.58 8.06478 14.58 8.33C14.58 8.59522 14.6854 8.84957 14.8729 9.03711C15.0604 9.22464 15.3148 9.33 15.58 9.33H20.46C21.3733 9.33 22.2493 8.9679 22.896 8.32306C23.5427 7.67822 23.9074 6.80326 23.91 5.89V1C23.91 0.734784 23.8046 0.48043 23.6171 0.292893C23.4296 0.105357 23.1752 0 22.91 0C22.6448 0 22.3904 0.105357 22.2029 0.292893C22.0154 0.48043 21.91 0.734784 21.91 1V5.37C21.83 5.25 21.75 5.12 21.66 5C21.45 4.71 21.23 4.43 21 4.17L20.91 4C20.4236 3.45221 19.888 2.95011 19.31 2.5L19.19 2.41C17.6386 1.24653 15.8257 0.480873 13.91 0.18H13.77C13.42 0.13 13.07 0.0799999 12.71 0.0599999H12.4L11.91 0H11.78C11.49 0 11.2 0 10.92 0H10.58L9.76 0.12L9.39 0.19C9.15 0.24 8.92 0.31 8.68 0.37L8.22 0.5L7.65 0.72C7.47 0.79 7.28 0.85 7.1 0.93L6.62 1.17C6.43 1.26 6.24 1.35 6.05 1.46L5.91 1.61L5.58 1.82L5.06 2.16C4.88 2.28 4.71 2.42 4.54 2.55C4.37 2.68 4.28 2.75 4.16 2.86C4.04 2.97 3.8 3.18 3.62 3.34C3.44 3.5 3.41 3.54 3.31 3.65L2.83 4.17L2.53 4.54C2.4 4.7 2.27 4.87 2.15 5.04L1.82 5.53L1.56 6C1.44 6.21 1.32 6.43 1.21 6.65L1.06 6.96C0.94 7.22 0.82 7.48 0.72 7.75C0.72 7.83 0.66 7.9 0.64 7.97C0.53 8.27 0.43 8.57 0.35 8.87C0.35 8.94 0.35 9 0.3 9.06C0.216984 9.36963 0.150226 9.68339 0.0999999 10C0.1039 10.0733 0.1039 10.1467 0.0999999 10.22C0.0999999 10.52 0.02 10.82 0 11.12C0 11.23 0 11.34 0 11.45C0 11.56 0 11.85 0 12.05C0 12.25 0 12.2 0 12.28C0 12.36 0 12.55 0 12.68C0 12.81 -5.58794e-08 13.2 0.0599999 13.45C0.12 13.7 0.0599999 13.72 0.12 13.85C0.18 13.98 0.2 14.37 0.25 14.62C0.3 14.87 0.32 14.87 0.35 15C0.38 15.13 0.48 15.51 0.56 15.76C0.64 16.01 0.66 16.01 0.7 16.14C0.74 16.27 0.88 16.62 0.98 16.86C1.08 17.1 1.11 17.13 1.18 17.26C1.25 17.39 1.39 17.7 1.51 17.92C1.53715 17.9612 1.56057 18.0047 1.58 18.05L1.71 18.25C1.91 18.57 2.11 18.88 2.34 19.18C2.43 19.3 2.51 19.42 2.61 19.54C2.89146 19.8896 3.19191 20.2234 3.51 20.54L3.8 20.8C4.05 21.04 4.31 21.26 4.58 21.48L4.96 21.76C5.27 21.98 5.59 22.19 5.96 22.38L6.15 22.5C7.01676 22.9857 7.9405 23.362 8.9 23.62H9.05C9.49462 23.7326 9.94537 23.8194 10.4 23.88H10.52C10.9807 23.9466 11.4448 23.9866 11.91 24C12.3879 23.9952 12.8653 23.9652 13.34 23.91H13.59C14.0522 23.8509 14.5099 23.7607 14.96 23.64C15.4321 23.5104 15.8962 23.3535 16.35 23.17L16.55 23.09C18.6487 22.2053 20.4523 20.7416 21.75 18.87C21.94 18.6 22.12 18.31 22.29 18.02C22.2918 17.9934 22.2918 17.9666 22.29 17.94C22.45 17.66 22.59 17.38 22.73 17.09L22.79 16.94C22.91 16.67 23.02 16.4 23.12 16.12C23.12 16.12 23.12 16.12 23.12 16.07C23.12 16.02 23.12 16.07 23.12 16.07C23.3267 15.4835 23.4872 14.8816 23.6 14.27C23.6477 14.0048 23.5882 13.7315 23.4344 13.5102C23.2806 13.2889 23.0452 13.1377 22.78 13.09C22.5148 13.0423 22.2415 13.1018 22.0202 13.2556C21.7989 13.4094 21.6477 13.6448 21.6 13.91C21.5059 14.4305 21.3688 14.9422 21.19 15.44C21.09 15.71 20.99 15.97 20.88 16.22C20.0384 18.0689 18.6536 19.6176 16.91 20.66C16.63 20.82 16.33 20.97 16.04 21.11H15.96C15.71 21.22 15.45 21.32 15.2 21.41L14.91 21.5L14.33 21.67L13.94 21.75C13.7788 21.7905 13.6151 21.8206 13.45 21.84C13.3015 21.8698 13.1511 21.8898 13 21.9H12.54H12.07C11.92 21.9 11.77 21.9 11.63 21.9H11.08L10.55 21.84L10.14 21.77C9.94 21.77 9.73 21.69 9.53 21.64L9.18 21.55L8.61 21.37C8.48 21.32 8.34 21.28 8.22 21.22L7.76 21.03C7.6 20.95 7.44 20.88 7.28 20.79L6.97 20.63L6.4 20.28L6.21 20.15L5.6 19.69L5.47 19.58C5.27 19.41 5.08 19.24 4.89 19.05L4.74 19L4.26 18.47L4.05 18.2C3.93 18.05 3.81 17.9 3.7 17.74L3.43 17.31L3.2 16.94C3.09212 16.7388 2.99531 16.5318 2.91 16.32C2.91 16.22 2.8 16.12 2.76 16.02C2.72 15.92 2.59 15.59 2.51 15.38L2.41 15.1C2.33 14.88 2.28 14.65 2.22 14.43C2.16 14.21 2.22 14.24 2.15 14.15C2.08 14.06 2.06 13.7 2.03 13.48C2 13.26 2.03 13.28 2.03 13.18C2.03 13.08 2.03 12.73 2.03 12.5C2.03 12.27 2.03 12.3 2.03 12.2C2.03 12.1 2.03 11.72 2.03 11.48C2.02522 11.3967 2.02522 11.3133 2.03 11.23C2.03 10.97 2.03 10.72 2.12 10.46V10.29C2.16229 10.0238 2.21904 9.76005 2.29 9.5C2.28425 9.45351 2.28425 9.40649 2.29 9.36C2.36 9.1 2.44 8.85 2.53 8.6L2.59 8.43C2.68 8.2 2.78 7.97 2.88 7.75L3 7.5C3.09 7.32 3.2 7.14 3.3 6.96L3.51 6.61C3.6 6.47 3.69 6.33 3.79 6.2C3.89 6.07 3.99 5.92 4.1 5.79C4.21 5.66 4.27 5.58 4.36 5.47L4.74 5L5.01 4.74L5.44 4.34L5.77 4.08C5.91 3.97 6.05 3.86 6.2 3.76L6.65 3.47L7.02 3.25C7.19 3.15 7.35 3.07 7.52 2.99C7.69 2.91 7.77 2.86 7.9 2.81L8.39 2.61L8.83 2.45L9.25 2.33L9.8 2.19L10.15 2.12L10.79 2.03H11.11C11.33 2.03 11.56 2.03 11.79 2.03H12.06C12.41 2.03 12.75 2.03 13.06 2.1H13.38C13.76 2.16 14.14 2.24 14.5 2.33L14.97 2.48L15.64 2.73L16.12 2.93C16.37 3.05 16.62 3.18 16.86 3.32L17.16 3.48C17.4826 3.68524 17.7932 3.90895 18.09 4.15L18.39 4.4C18.61 4.59 18.82 4.78 19.02 4.99L19.29 5.27C19.5496 5.55992 19.7933 5.8637 20.02 6.18C20.09 6.27 20.14 6.37 20.2 6.46C20.382 6.72716 20.5489 7.00426 20.7 7.29H20.43L15.58 7.33Z" fill="#628EFF"/>
</svg>
