<svg width="24" height="24" viewBox="0 0 24 24" fill="none" xmlns="http://www.w3.org/2000/svg">
<path d="M19 0H5C3.67392 0 2.40215 0.526784 1.46447 1.46447C0.526784 2.40215 0 3.67392 0 5V19C0 20.3261 0.526784 21.5979 1.46447 22.5355C2.40215 23.4732 3.67392 24 5 24H19C20.3261 24 21.5979 23.4732 22.5355 22.5355C23.4732 21.5979 24 20.3261 24 19V5C24 3.67392 23.4732 2.40215 22.5355 1.46447C21.5979 0.526784 20.3261 0 19 0ZM16 13H8C7.73478 13 7.48043 12.8946 7.29289 12.7071C7.10536 12.5196 7 12.2652 7 12C7 11.7348 7.10536 11.4804 7.29289 11.2929C7.48043 11.1054 7.73478 11 8 11H16C16.2652 11 16.5196 11.1054 16.7071 11.2929C16.8946 11.4804 17 11.7348 17 12C17 12.2652 16.8946 12.5196 16.7071 12.7071C16.5196 12.8946 16.2652 13 16 13Z" fill="#FFCB46"/>
</svg>
