<svg width="24" height="26" viewBox="0 0 24 26" fill="none" xmlns="http://www.w3.org/2000/svg">
<path d="M3 5H21L19.36 21.4C19.2605 22.3901 18.7955 23.3076 18.0559 23.9732C17.3163 24.6389 16.3551 25.005 15.36 25H8.62C7.62493 25.005 6.66373 24.6389 5.9241 23.9732C5.18446 23.3076 4.7195 22.3901 4.62 21.4L3 5Z" stroke="#FF7B7B" stroke-width="2" stroke-linecap="round" stroke-linejoin="round"/>
<path d="M10 18L9.48 12.02" stroke="#FF7B7B" stroke-width="2" stroke-linecap="round" stroke-linejoin="round"/>
<path d="M14 18L14.52 12.02" stroke="#FF7B7B" stroke-width="2" stroke-linecap="round" stroke-linejoin="round"/>
<path d="M23 5H1" stroke="#FF7B7B" stroke-width="2" stroke-linecap="round" stroke-linejoin="round"/>
<path d="M11 1H13C13.5304 1 14.0391 1.21071 14.4142 1.58579C14.7893 1.96086 15 2.46957 15 3V5H9V3C9 2.46957 9.21071 1.96086 9.58579 1.58579C9.96086 1.21071 10.4696 1 11 1Z" stroke="#FF7B7B" stroke-width="2" stroke-linecap="round" stroke-linejoin="round"/>
</svg>
